<svg xmlns="http://www.w3.org/2000/svg" viewBox="0 0 520 400" fill="none">
  <rect width="520" height="400" rx="32" fill="#0F172A"/>
  <circle cx="420" cy="74" r="74" fill="#C26B36" fill-opacity=".2"/>
  <circle cx="116" cy="316" r="88" fill="#FFF4E6" fill-opacity=".08"/>
  <rect x="54" y="56" width="186" height="288" rx="30" fill="#F7E5D0"/>
  <rect x="72" y="76" width="150" height="46" rx="18" fill="#FFFFFF"/>
  <rect x="72" y="138" width="150" height="94" rx="22" fill="#111827"/>
  <rect x="92" y="160" width="78" height="12" rx="6" fill="#F8E6D2"/>
  <rect x="92" y="182" width="54" height="10" rx="5" fill="#7B879C"/>
  <rect x="72" y="248" width="150" height="34" rx="16" fill="#FFFFFF"/>
  <rect x="88" y="260" width="44" height="10" rx="5" fill="#111827"/>
  <rect x="144" y="260" width="42" height="10" rx="5" fill="#111827"/>
  <rect x="72" y="294" width="150" height="34" rx="17" fill="#C26B36"/>
  <rect x="106" y="306" width="82" height="10" rx="5" fill="#FFF8F0"/>
  <rect x="278" y="86" width="188" height="66" rx="24" fill="#FFF8F0"/>
  <rect x="300" y="106" width="92" height="12" rx="6" fill="#111827"/>
  <rect x="300" y="128" width="62" height="10" rx="5" fill="#7B879C"/>
  <rect x="278" y="174" width="188" height="78" rx="24" fill="#141F33"/>
  <rect x="300" y="198" width="122" height="12" rx="6" fill="#F8E6D2"/>
  <rect x="300" y="222" width="72" height="10" rx="5" fill="#8B95A7"/>
  <rect x="278" y="274" width="188" height="86" rx="28" fill="#FFF8F0"/>
  <path d="M304 330C332 302 360 292 390 296C420 300 442 322 468 318" stroke="#C26B36" stroke-width="8" stroke-linecap="round"/>
  <circle cx="304" cy="330" r="8" fill="#111827"/>
  <circle cx="390" cy="296" r="8" fill="#111827"/>
  <circle cx="468" cy="318" r="8" fill="#111827"/>
</svg>
