<svg xmlns="http://www.w3.org/2000/svg" viewBox="0 0 360 460" fill="none">
  <defs>
    <linearGradient id="phoneBg" x1="44" y1="22" x2="300" y2="424" gradientUnits="userSpaceOnUse">
      <stop stop-color="#FFF5E9"/>
      <stop offset="1" stop-color="#F8E7D2"/>
    </linearGradient>
  </defs>
  <rect width="360" height="460" rx="36" fill="#F3E9DC"/>
  <rect x="70" y="24" width="220" height="412" rx="34" fill="#111827"/>
  <rect x="84" y="42" width="192" height="376" rx="28" fill="url(#phoneBg)"/>
  <rect x="114" y="56" width="132" height="8" rx="4" fill="#D7C1A7"/>
  <rect x="104" y="84" width="152" height="74" rx="24" fill="#1B2639"/>
  <rect x="122" y="104" width="116" height="12" rx="6" fill="#F8E6D2"/>
  <rect x="122" y="126" width="92" height="10" rx="5" fill="#8B95A7"/>
  <rect x="104" y="176" width="152" height="90" rx="24" fill="#FFFFFF"/>
  <rect x="120" y="196" width="78" height="12" rx="6" fill="#111827"/>
  <rect x="120" y="218" width="108" height="10" rx="5" fill="#8B95A7"/>
  <rect x="120" y="238" width="86" height="10" rx="5" fill="#C26B36"/>
  <rect x="104" y="284" width="152" height="48" rx="22" fill="#FFFFFF"/>
  <rect x="118" y="300" width="50" height="12" rx="6" fill="#111827"/>
  <rect x="180" y="300" width="46" height="12" rx="6" fill="#111827"/>
  <rect x="104" y="346" width="152" height="48" rx="24" fill="#C26B36"/>
  <rect x="136" y="364" width="88" height="12" rx="6" fill="#FFF8F0"/>
</svg>
