<svg width="1200" height="900" viewBox="0 0 1200 900" fill="none" xmlns="http://www.w3.org/2000/svg">
  <defs>
    <linearGradient id="bg" x1="140" y1="60" x2="980" y2="840" gradientUnits="userSpaceOnUse">
      <stop stop-color="#0F172A"/>
      <stop offset="1" stop-color="#020617"/>
    </linearGradient>
    <linearGradient id="panel" x1="0" y1="0" x2="760" y2="500" gradientUnits="userSpaceOnUse">
      <stop stop-color="#FFFFFF" stop-opacity="0.16"/>
      <stop offset="1" stop-color="#FFFFFF" stop-opacity="0.04"/>
    </linearGradient>
    <linearGradient id="accent" x1="162" y1="80" x2="1044" y2="654" gradientUnits="userSpaceOnUse">
      <stop stop-color="#C26B36"/>
      <stop offset="1" stop-color="#F59E0B"/>
    </linearGradient>
    <filter id="blur" x="-160" y="-160" width="1520" height="1220" filterUnits="userSpaceOnUse" color-interpolation-filters="sRGB">
      <feGaussianBlur stdDeviation="80"/>
    </filter>
  </defs>

  <rect width="1200" height="900" rx="52" fill="url(#bg)"/>
  <g filter="url(#blur)">
    <circle cx="960" cy="128" r="180" fill="#C26B36" fill-opacity="0.32"/>
    <circle cx="236" cy="742" r="220" fill="#F59E0B" fill-opacity="0.18"/>
  </g>

  <rect x="64" y="52" width="1072" height="796" rx="42" fill="url(#panel)" stroke="white" stroke-opacity="0.08"/>
  <path d="M64 214H1136" stroke="white" stroke-opacity="0.08"/>
  <path d="M298 214V848" stroke="white" stroke-opacity="0.06"/>

  <rect x="104" y="104" width="150" height="16" rx="8" fill="#F8FAFC" fill-opacity="0.42"/>
  <rect x="104" y="132" width="112" height="10" rx="5" fill="#F8FAFC" fill-opacity="0.18"/>

  <rect x="104" y="260" width="154" height="76" rx="24" fill="#FFFFFF" fill-opacity="0.06"/>
  <circle cx="136" cy="298" r="10" fill="#F59E0B"/>
  <rect x="158" y="284" width="70" height="8" rx="4" fill="#F8FAFC" fill-opacity="0.7"/>
  <rect x="158" y="300" width="48" height="8" rx="4" fill="#F8FAFC" fill-opacity="0.22"/>

  <rect x="104" y="354" width="154" height="76" rx="24" fill="#FFFFFF" fill-opacity="0.04"/>
  <circle cx="136" cy="392" r="10" fill="#34D399"/>
  <rect x="158" y="378" width="82" height="8" rx="4" fill="#F8FAFC" fill-opacity="0.7"/>
  <rect x="158" y="394" width="58" height="8" rx="4" fill="#F8FAFC" fill-opacity="0.22"/>

  <rect x="104" y="448" width="154" height="76" rx="24" fill="#FFFFFF" fill-opacity="0.04"/>
  <circle cx="136" cy="486" r="10" fill="#F8FAFC" fill-opacity="0.78"/>
  <rect x="158" y="472" width="74" height="8" rx="4" fill="#F8FAFC" fill-opacity="0.7"/>
  <rect x="158" y="488" width="60" height="8" rx="4" fill="#F8FAFC" fill-opacity="0.22"/>

  <rect x="342" y="96" width="742" height="132" rx="34" fill="#FFFFFF" fill-opacity="0.08" stroke="white" stroke-opacity="0.12"/>
  <rect x="386" y="134" width="146" height="12" rx="6" fill="#F8FAFC" fill-opacity="0.28"/>
  <rect x="386" y="158" width="332" height="16" rx="8" fill="#F8FAFC" fill-opacity="0.94"/>
  <rect x="386" y="188" width="278" height="10" rx="5" fill="#F8FAFC" fill-opacity="0.26"/>

  <rect x="854" y="124" width="190" height="76" rx="24" fill="url(#accent)"/>
  <rect x="886" y="148" width="76" height="10" rx="5" fill="#FFF7ED" fill-opacity="0.64"/>
  <rect x="886" y="166" width="116" height="18" rx="9" fill="white"/>

  <rect x="342" y="258" width="476" height="314" rx="36" fill="#FFFFFF" fill-opacity="0.08" stroke="white" stroke-opacity="0.12"/>
  <rect x="384" y="298" width="152" height="12" rx="6" fill="#F8FAFC" fill-opacity="0.24"/>
  <rect x="384" y="324" width="196" height="14" rx="7" fill="#F8FAFC" fill-opacity="0.92"/>
  <path d="M388 502C428 474 462 448 504 420C536 396 588 384 632 396C670 406 696 430 736 444C756 450 776 454 802 452" stroke="#F59E0B" stroke-width="10" stroke-linecap="round"/>
  <path d="M388 520H772" stroke="white" stroke-opacity="0.08" stroke-linecap="round"/>
  <path d="M388 482H772" stroke="white" stroke-opacity="0.08" stroke-linecap="round"/>
  <path d="M388 444H772" stroke="white" stroke-opacity="0.08" stroke-linecap="round"/>
  <rect x="388" y="546" width="110" height="12" rx="6" fill="#F8FAFC" fill-opacity="0.26"/>
  <rect x="388" y="574" width="146" height="18" rx="9" fill="#F8FAFC" fill-opacity="0.9"/>
  <rect x="552" y="574" width="128" height="18" rx="9" fill="#F8FAFC" fill-opacity="0.18"/>

  <rect x="844" y="258" width="240" height="156" rx="34" fill="#FFFFFF" fill-opacity="0.08" stroke="white" stroke-opacity="0.12"/>
  <rect x="880" y="296" width="92" height="10" rx="5" fill="#F8FAFC" fill-opacity="0.28"/>
  <circle cx="962" cy="358" r="34" fill="#FFFFFF" fill-opacity="0.08"/>
  <circle cx="962" cy="358" r="22" fill="#34D399"/>
  <path d="M950 358L958 366L976 346" stroke="#0F172A" stroke-width="6" stroke-linecap="round" stroke-linejoin="round"/>
  <rect x="904" y="414" width="116" height="16" rx="8" fill="#F8FAFC" fill-opacity="0.92"/>

  <rect x="844" y="442" width="240" height="196" rx="34" fill="#FFFFFF" fill-opacity="0.06" stroke="white" stroke-opacity="0.12"/>
  <rect x="880" y="478" width="124" height="10" rx="5" fill="#F8FAFC" fill-opacity="0.26"/>
  <rect x="880" y="506" width="168" height="18" rx="9" fill="#F8FAFC" fill-opacity="0.94"/>
  <rect x="880" y="550" width="168" height="14" rx="7" fill="#F8FAFC" fill-opacity="0.14"/>
  <rect x="880" y="578" width="168" height="14" rx="7" fill="#F8FAFC" fill-opacity="0.14"/>
  <rect x="880" y="606" width="168" height="14" rx="7" fill="#F8FAFC" fill-opacity="0.14"/>

  <rect x="342" y="604" width="742" height="196" rx="36" fill="#FFFFFF" fill-opacity="0.04" stroke="white" stroke-opacity="0.1"/>
  <rect x="384" y="646" width="182" height="18" rx="9" fill="#F8FAFC" fill-opacity="0.92"/>
  <rect x="384" y="688" width="660" height="14" rx="7" fill="#F8FAFC" fill-opacity="0.14"/>
  <rect x="384" y="716" width="612" height="14" rx="7" fill="#F8FAFC" fill-opacity="0.14"/>
  <rect x="384" y="744" width="522" height="14" rx="7" fill="#F8FAFC" fill-opacity="0.14"/>
</svg>
