<svg xmlns="http://www.w3.org/2000/svg" viewBox="0 0 680 460" fill="none">
  <defs>
    <linearGradient id="bg" x1="56" y1="28" x2="610" y2="420" gradientUnits="userSpaceOnUse">
      <stop stop-color="#FCE5D2"/>
      <stop offset="1" stop-color="#FFF8F0"/>
    </linearGradient>
    <linearGradient id="panel" x1="96" y1="78" x2="560" y2="390" gradientUnits="userSpaceOnUse">
      <stop stop-color="#111827"/>
      <stop offset="1" stop-color="#253247"/>
    </linearGradient>
  </defs>
  <rect x="20" y="20" width="640" height="420" rx="36" fill="url(#bg)"/>
  <rect x="56" y="58" width="568" height="344" rx="28" fill="url(#panel)"/>
  <rect x="84" y="88" width="164" height="284" rx="24" fill="#0B1220"/>
  <rect x="274" y="88" width="322" height="70" rx="22" fill="#F7F4EE"/>
  <rect x="274" y="178" width="152" height="90" rx="22" fill="#FFF3E4"/>
  <rect x="444" y="178" width="152" height="90" rx="22" fill="#1C2940"/>
  <rect x="274" y="288" width="322" height="84" rx="24" fill="#F7F4EE"/>
  <rect x="108" y="118" width="116" height="16" rx="8" fill="#C26B36"/>
  <rect x="108" y="150" width="88" height="12" rx="6" fill="#556277"/>
  <rect x="108" y="184" width="116" height="46" rx="18" fill="#172033"/>
  <rect x="108" y="246" width="116" height="46" rx="18" fill="#172033"/>
  <rect x="108" y="308" width="116" height="46" rx="18" fill="#172033"/>
  <rect x="298" y="112" width="138" height="14" rx="7" fill="#111827"/>
  <rect x="298" y="134" width="94" height="10" rx="5" fill="#8B95A7"/>
  <rect x="298" y="198" width="88" height="12" rx="6" fill="#111827"/>
  <rect x="298" y="220" width="66" height="10" rx="5" fill="#8B95A7"/>
  <rect x="468" y="198" width="88" height="12" rx="6" fill="#F8E6D2"/>
  <rect x="468" y="220" width="62" height="10" rx="5" fill="#8B95A7"/>
  <path d="M302 340C332 314 360 298 390 304C420 310 448 338 476 342C504 346 526 330 548 300" stroke="#C26B36" stroke-width="10" stroke-linecap="round"/>
  <circle cx="302" cy="340" r="10" fill="#111827"/>
  <circle cx="390" cy="304" r="10" fill="#111827"/>
  <circle cx="476" cy="342" r="10" fill="#111827"/>
  <circle cx="548" cy="300" r="10" fill="#111827"/>
</svg>
