<svg xmlns="http://www.w3.org/2000/svg" viewBox="0 0 420 260" fill="none">
  <rect width="420" height="260" rx="28" fill="#F7E8D8"/>
  <rect x="32" y="30" width="356" height="200" rx="24" fill="#111827"/>
  <rect x="58" y="56" width="126" height="148" rx="18" fill="#1C2940"/>
  <path d="M224 76C252 58 292 60 318 78C344 96 356 126 350 150C342 186 308 204 272 198C230 190 202 150 224 76Z" fill="#F8E6D2"/>
  <path d="M278 98C292 98 304 110 304 124V136C304 154 292 170 276 170C260 170 248 154 248 136V124C248 110 262 98 278 98Z" fill="#C26B36"/>
  <rect x="80" y="82" width="82" height="12" rx="6" fill="#C26B36"/>
  <rect x="80" y="108" width="56" height="10" rx="5" fill="#7E8AA0"/>
  <rect x="80" y="136" width="82" height="42" rx="14" fill="#131C2C"/>
</svg>
