<svg width="720" height="900" viewBox="0 0 720 900" fill="none" xmlns="http://www.w3.org/2000/svg">
  <rect width="720" height="900" rx="40" fill="#0F172A"/>
  <circle cx="580" cy="152" r="170" fill="#C26B36" fill-opacity="0.3"/>
  <circle cx="210" cy="728" r="188" fill="#F59E0B" fill-opacity="0.14"/>
  <rect x="54" y="54" width="612" height="792" rx="34" fill="white" fill-opacity="0.06" stroke="white" stroke-opacity="0.12"/>
  <rect x="104" y="118" width="152" height="16" rx="8" fill="#F8FAFC" fill-opacity="0.22"/>
  <rect x="104" y="150" width="248" height="26" rx="13" fill="white"/>
  <path d="M168 414C168 330 236 262 320 262H402C486 262 554 330 554 414V548C554 632 486 700 402 700H320C236 700 168 632 168 548V414Z" fill="#F3DBC2"/>
  <path d="M216 392C216 304 284 236 372 236C460 236 520 302 520 392V446C498 434 456 426 424 436C392 446 358 476 322 476C280 476 242 450 216 420V392Z" fill="#111827"/>
  <rect x="248" y="514" width="224" height="124" rx="62" fill="#111827"/>
  <rect x="286" y="564" width="148" height="18" rx="9" fill="#D4A373"/>
  <rect x="296" y="602" width="128" height="16" rx="8" fill="white" fill-opacity="0.12"/>
  <circle cx="304" cy="458" r="14" fill="#111827"/>
  <circle cx="420" cy="458" r="14" fill="#111827"/>
  <path d="M314 528C336 544 384 544 406 528" stroke="#111827" stroke-width="10" stroke-linecap="round"/>
  <rect x="104" y="742" width="204" height="48" rx="24" fill="white" fill-opacity="0.1"/>
  <rect x="334" y="742" width="200" height="48" rx="24" fill="#C26B36"/>
</svg>
