<svg width="720" height="900" viewBox="0 0 720 900" fill="none" xmlns="http://www.w3.org/2000/svg">
  <rect width="720" height="900" rx="40" fill="#FFF7F0"/>
  <circle cx="550" cy="150" r="160" fill="#F59E0B" fill-opacity="0.2"/>
  <circle cx="162" cy="744" r="184" fill="#C26B36" fill-opacity="0.14"/>
  <rect x="54" y="54" width="612" height="792" rx="34" fill="white" fill-opacity="0.8" stroke="#E2E8F0"/>
  <rect x="104" y="118" width="144" height="16" rx="8" fill="#CBD5E1"/>
  <rect x="104" y="150" width="240" height="26" rx="13" fill="#0F172A"/>
  <path d="M190 404C190 304 270 224 370 224C470 224 530 312 530 402V542C530 650 442 738 334 738H322C236 738 190 672 190 586V404Z" fill="#F7D7CB"/>
  <path d="M230 396C230 318 294 246 372 246C452 246 520 312 520 392V420C498 404 474 398 448 398C406 398 374 418 344 442C322 458 296 466 270 466C254 466 240 462 230 456V396Z" fill="#2A2438"/>
  <circle cx="306" cy="478" r="13" fill="#2A2438"/>
  <circle cx="418" cy="478" r="13" fill="#2A2438"/>
  <path d="M318 548C340 566 384 566 406 548" stroke="#9A3412" stroke-width="8" stroke-linecap="round"/>
  <rect x="248" y="612" width="224" height="108" rx="54" fill="#C26B36"/>
  <rect x="104" y="742" width="208" height="48" rx="24" fill="#0F172A"/>
  <rect x="338" y="742" width="196" height="48" rx="24" fill="#F59E0B"/>
</svg>
