<svg width="1440" height="900" viewBox="0 0 1440 900" fill="none" xmlns="http://www.w3.org/2000/svg">
  <rect width="1440" height="900" rx="44" fill="#111827"/>
  <rect x="46" y="42" width="1348" height="816" rx="34" fill="url(#paint0_linear)"/>
  <rect x="86" y="96" width="330" height="708" rx="28" fill="#0F172A" fill-opacity="0.92"/>
  <rect x="454" y="96" width="900" height="220" rx="28" fill="#F8FAFC"/>
  <rect x="454" y="344" width="900" height="460" rx="28" fill="#FFFFFF" fill-opacity="0.92"/>
  <rect x="110" y="130" width="120" height="18" rx="9" fill="#F59E0B" fill-opacity="0.35"/>
  <rect x="110" y="168" width="214" height="36" rx="18" fill="white" fill-opacity="0.08"/>
  <rect x="110" y="250" width="282" height="80" rx="24" fill="white" fill-opacity="0.08"/>
  <rect x="110" y="350" width="282" height="80" rx="24" fill="#F59E0B" fill-opacity="0.12"/>
  <rect x="110" y="450" width="282" height="80" rx="24" fill="white" fill-opacity="0.08"/>
  <rect x="110" y="550" width="282" height="80" rx="24" fill="white" fill-opacity="0.08"/>
  <rect x="110" y="650" width="282" height="112" rx="28" fill="white" fill-opacity="0.08"/>
  <rect x="486" y="130" width="180" height="16" rx="8" fill="#CBD5E1"/>
  <rect x="486" y="162" width="360" height="46" rx="23" fill="#0F172A"/>
  <rect x="878" y="146" width="176" height="32" rx="16" fill="#F59E0B" fill-opacity="0.18"/>
  <rect x="1084" y="146" width="176" height="32" rx="16" fill="#E2E8F0"/>
  <rect x="486" y="370" width="262" height="132" rx="24" fill="#F8FAFC"/>
  <rect x="774" y="370" width="262" height="132" rx="24" fill="#F8FAFC"/>
  <rect x="1062" y="370" width="262" height="132" rx="24" fill="#0F172A"/>
  <rect x="486" y="530" width="838" height="64" rx="22" fill="#FFF7ED"/>
  <rect x="486" y="614" width="838" height="64" rx="22" fill="#F8FAFC"/>
  <rect x="486" y="698" width="838" height="64" rx="22" fill="#F8FAFC"/>
  <circle cx="542" cy="562" r="18" fill="#F59E0B"/>
  <circle cx="542" cy="646" r="18" fill="#0F172A"/>
  <circle cx="542" cy="730" r="18" fill="#BE185D"/>
  <rect x="578" y="546" width="214" height="14" rx="7" fill="#0F172A"/>
  <rect x="578" y="570" width="340" height="10" rx="5" fill="#94A3B8"/>
  <rect x="578" y="630" width="214" height="14" rx="7" fill="#0F172A"/>
  <rect x="578" y="654" width="312" height="10" rx="5" fill="#94A3B8"/>
  <rect x="578" y="714" width="214" height="14" rx="7" fill="#0F172A"/>
  <rect x="578" y="738" width="332" height="10" rx="5" fill="#94A3B8"/>
  <defs>
    <linearGradient id="paint0_linear" x1="720" y1="42" x2="720" y2="858" gradientUnits="userSpaceOnUse">
      <stop stop-color="#1E293B"/>
      <stop offset="1" stop-color="#0F172A"/>
    </linearGradient>
  </defs>
</svg>
